Coordinates
version=1
nRows=27
nColumns=12
inDegrees=yes

Units are S.I. units (second, meters, Newtons, ...)
Angles are in degrees

endheader
time	SC_y	SC_z	SC_x	AC_y	AC_z	AC_x	GH_y	GH_z	GH_yy	EL_x	PS_y
       0.0               -14.8          31.26          12.02          44.34         -1.657         -14.66          78.46          14.57         -147.7          30.33          14.61
   0.04115               -14.8          31.26          12.02          44.34         -1.657         -14.65          78.44          14.57         -147.7          30.35          14.63
   0.08231               -14.8          31.26          12.03          44.34         -1.656         -14.65          78.41          14.58         -147.6          30.36          14.65
    0.1235               -14.8          31.26          12.03          44.35         -1.656         -14.65          78.38          14.59         -147.6          30.38          14.67
    0.1646               -14.8          31.27          12.04          44.35         -1.655         -14.64          78.35           14.6         -147.6          30.39          14.69
    0.2058               -14.8          31.27          12.05          44.35         -1.655         -14.64          78.32          14.61         -147.5          30.41          14.72
    0.2469               -14.8          31.27          12.06          44.35         -1.654         -14.64          78.28          14.62         -147.5          30.43          14.75
    0.2881               -14.8          31.27          12.07          44.35         -1.654         -14.63          78.24          14.63         -147.5          30.45          14.77
    0.3292               -14.8          31.27          12.08          44.35         -1.653         -14.63           78.2          14.64         -147.4          30.47          14.81
    0.3704               -14.8          31.27          12.09          44.36         -1.653         -14.62          78.16          14.65         -147.4           30.5          14.84
    0.4115               -14.8          31.27           12.1          44.36         -1.652         -14.62          78.11          14.66         -147.3          30.52          14.87
    0.4527               -14.8          31.27          12.11          44.36         -1.652         -14.61          78.06          14.68         -147.3          30.55          14.91
    0.4938               -14.8          31.28          12.13          44.36         -1.651         -14.61          78.01          14.69         -147.2          30.58          14.95
     0.535               -14.8          31.28          12.14          44.36          -1.65          -14.6          77.95          14.71         -147.2          30.61           15.0
    0.5762               -14.8          31.28          12.15          44.37         -1.649         -14.59          77.88          14.72         -147.1          30.64          15.05
    0.6173               -14.8          31.28          12.17          44.37         -1.648         -14.58          77.81          14.74         -147.0          30.68           15.1
    0.6585              -14.79          31.29          12.19          44.37         -1.647         -14.58          77.74          14.76         -147.0          30.72          15.15
    0.6996              -14.79          31.29          12.21          44.38         -1.646         -14.57          77.66          14.79         -146.9          30.76          15.22
    0.7408              -14.79          31.29          12.23          44.38         -1.645         -14.56          77.57          14.81         -146.8          30.81          15.28
    0.7819              -14.79           31.3          12.25          44.38         -1.644         -14.55          77.47          14.84         -146.7          30.86          15.36
    0.8231              -14.79           31.3          12.28          44.39         -1.642         -14.53          77.36          14.87         -146.6          30.92          15.44
    0.8642              -14.79           31.3          12.31          44.39         -1.641         -14.52          77.24           14.9         -146.5          30.98          15.53
    0.9054              -14.79          31.31          12.34           44.4         -1.639         -14.51          77.11          14.93         -146.3          31.05          15.63
    0.9465              -14.78          31.31          12.37           44.4         -1.637         -14.49          76.97          14.97         -146.2          31.13          15.73
    0.9877              -14.78          31.32          12.41          44.41         -1.635         -14.47          76.81          15.02         -146.0          31.21          15.86
     1.029              -14.78          31.32          12.46          44.42         -1.633         -14.45          76.63          15.07         -145.8          31.31          15.99
      1.07              -14.78          31.33           12.5          44.43          -1.63         -14.43          76.43          15.12         -145.6          31.41          16.14
